# xmcd CD database file
#
# Track frame offsets:
#	150
#	10932
#	26767
#	38317
#	54937
#	63285
#	79060
#	92582
#	110485
#	126715
#
# Disc length: 1861 seconds
#
# Revision: 0
# Processed by: cddbd v1.5.2PL0 Copyright (c) Steve Scherf et al.
# Submitted via: CDex 1.51
#
DISCID=7607430a
DTITLE=Michael Gurley and John Gilmore - Champagne Champagne
DYEAR=1996
DGENRE=Jazz
TTITLE0=Champagne Champagne
TTITLE1=One Of Those Nights
TTITLE2=She's Goin' Cool
TTITLE3=I Don't Like Love
TTITLE4=Better In Blue
TTITLE5=When Love Is Real
TTITLE6=Boulevard Of Dreams (Tonight)
TTITLE7=Kisses From My Misses On This Christmas
TTITLE8=Moon River
TTITLE9=Wee Small Hours
EXTD=YEAR: 1996
EXTT0=
EXTT1=
EXTT2=
EXTT3=
EXTT4=
EXTT5=
EXTT6=
EXTT7=
EXTT8=
EXTT9=
PLAYORDER=
